<svg width="30" height="26" viewBox="0 0 30 26" fill="none" xmlns="http://www.w3.org/2000/svg">
<path d="M17.8746 26C18.7366 26 19.5632 25.6576 20.1727 25.0481C20.7822 24.4386 21.1246 23.612 21.1246 22.75C21.1246 21.888 20.7822 21.0614 20.1727 20.4519C19.5632 19.8424 18.7366 19.5 17.8746 19.5C17.0127 19.5 16.186 19.8424 15.5765 20.4519C14.967 21.0614 14.6246 21.888 14.6246 22.75C14.6246 23.612 14.967 24.4386 15.5765 25.0481C16.186 25.6576 17.0127 26 17.8746 26ZM6.49961 26C7.36156 26 8.18821 25.6576 8.79771 25.0481C9.4072 24.4386 9.74961 23.612 9.74961 22.75C9.74961 21.888 9.4072 21.0614 8.79771 20.4519C8.18821 19.8424 7.36156 19.5 6.49961 19.5C5.63766 19.5 4.81101 19.8424 4.20151 20.4519C3.59202 21.0614 3.24961 21.888 3.24961 22.75C3.24961 23.612 3.59202 24.4386 4.20151 25.0481C4.81101 25.6576 5.63766 26 6.49961 26ZM27.6864 3.12487C28.092 3.11179 28.4767 2.94144 28.759 2.64986C29.0414 2.35827 29.1992 1.96831 29.1992 1.56244C29.1992 1.15656 29.0414 0.766601 28.759 0.475016C28.4767 0.18343 28.092 0.0130842 27.6864 0H25.816C24.3502 0 23.0827 1.01725 22.7642 2.44725L20.7281 11.6155C20.4096 13.0455 19.1421 14.0628 17.6764 14.0628H5.46936L3.12611 4.6865H18.3117C18.7136 4.66816 19.0929 4.49563 19.3708 4.20477C19.6487 3.91392 19.8037 3.52714 19.8037 3.12487C19.8037 2.72261 19.6487 2.33583 19.3708 2.04498C19.0929 1.75412 18.7136 1.58159 18.3117 1.56325H3.12611C2.65107 1.56311 2.18224 1.67128 1.75528 1.87953C1.32832 2.08778 0.954459 2.39064 0.662117 2.76507C0.369775 3.13951 0.166647 3.57567 0.0681796 4.04039C-0.0302884 4.50512 -0.0215047 4.98618 0.0938593 5.447L2.43711 14.82C2.60604 15.4963 2.99625 16.0967 3.5457 16.5257C4.09514 16.9548 4.77226 17.1877 5.46936 17.1876H17.6764C19.0986 17.1878 20.4783 16.7029 21.5877 15.813C22.6971 14.9232 23.4698 13.6815 23.7782 12.2931L25.816 3.12487H27.6864Z" fill="#A2A6B0"/>
<path d="M9.58008 6.38733L15.5112 12.3184" stroke="#A2A6B0" stroke-width="2" stroke-linecap="round"/>
<path d="M15.5117 6.38733L9.58063 12.3184" stroke="#A2A6B0" stroke-width="2" stroke-linecap="round"/>
</svg>
