<svg width="25" height="25" viewBox="0 0 25 25" fill="none" xmlns="http://www.w3.org/2000/svg">
<path d="M18.543 19.7987L18.543 19.7987C18.6259 19.8815 18.7242 19.9473 18.8325 19.9921C18.9407 20.0369 19.0567 20.06 19.1739 20.06C19.291 20.06 19.407 20.0369 19.5152 19.9921C19.6235 19.9473 19.7218 19.8815 19.8047 19.7987C19.8875 19.7159 19.9532 19.6175 19.9981 19.5093C20.0429 19.4011 20.066 19.285 20.066 19.1679C20.066 19.0507 20.0429 18.9347 19.9981 18.8265C19.9532 18.7183 19.8875 18.6199 19.8047 18.5371L19.8047 18.5371L16.4729 15.2061C17.4382 13.9251 17.8909 12.3286 17.74 10.7296C17.5862 9.1007 16.8177 7.59155 15.5908 6.50917C14.3638 5.42678 12.7706 4.85248 11.1353 4.90308C9.49994 4.95369 7.9453 5.62539 6.78763 6.78157C5.62895 7.93854 4.95504 9.49379 4.90322 11.1304C4.85141 12.767 5.4256 14.3618 6.50877 15.5897C7.59194 16.8177 9.10258 17.5864 10.7329 17.7392C12.3334 17.8893 13.931 17.4346 15.2118 16.4667L18.543 19.7987ZM14.6257 8.04382C15.0632 8.47432 15.4112 8.98719 15.6496 9.55285C15.8879 10.1185 16.012 10.7258 16.0145 11.3396C16.017 11.9534 15.8979 12.5617 15.6641 13.1293C15.4304 13.6968 15.0866 14.2125 14.6525 14.6466C14.2185 15.0806 13.7028 15.4244 13.1352 15.6582C12.5676 15.8919 11.9594 16.011 11.3456 16.0085C10.7317 16.006 10.1245 15.882 9.55881 15.6436C8.99315 15.4053 8.48028 15.0573 8.04978 14.6197C7.18947 13.7453 6.70954 12.5663 6.71453 11.3396C6.71953 10.1129 7.20904 8.9379 8.07645 8.07049C8.94386 7.20308 10.1189 6.71357 11.3456 6.70857C12.5722 6.70358 13.7512 7.18351 14.6257 8.04382Z" fill="black" stroke="black" stroke-width="0.2"/>
</svg>
