<svg width="25" height="25" viewBox="0 0 25 25" fill="none" xmlns="http://www.w3.org/2000/svg">
<path d="M14.4574 20.6667C15.01 20.6667 15.5399 20.4472 15.9306 20.0565C16.3213 19.6658 16.5408 19.1359 16.5408 18.5833C16.5408 18.0308 16.3213 17.5009 15.9306 17.1102C15.5399 16.7195 15.01 16.5 14.4574 16.5C13.9049 16.5 13.375 16.7195 12.9843 17.1102C12.5936 17.5009 12.3741 18.0308 12.3741 18.5833C12.3741 19.1359 12.5936 19.6658 12.9843 20.0565C13.375 20.4472 13.9049 20.6667 14.4574 20.6667ZM7.16577 20.6667C7.7183 20.6667 8.24821 20.4472 8.63891 20.0565C9.02961 19.6658 9.2491 19.1359 9.2491 18.5833C9.2491 18.0308 9.02961 17.5009 8.63891 17.1102C8.24821 16.7195 7.7183 16.5 7.16577 16.5C6.61323 16.5 6.08333 16.7195 5.69263 17.1102C5.30193 17.5009 5.08243 18.0308 5.08243 18.5833C5.08243 19.1359 5.30193 19.6658 5.69263 20.0565C6.08333 20.4472 6.61323 20.6667 7.16577 20.6667Z" fill="#0047D6"/>
<path d="M21.4346 5.69863C21.2536 5.88554 21.0071 5.99474 20.747 6.00312H19.5481L18.2418 11.8802C18.0441 12.7702 17.5488 13.5661 16.8376 14.1366C16.1265 14.707 15.242 15.0178 14.3304 15.0177H6.50535C6.05849 15.0178 5.62444 14.8684 5.27224 14.5934C4.92003 14.3184 4.66989 13.9335 4.5616 13.5L3.05952 7.49167C2.98557 7.19627 2.97994 6.8879 3.04306 6.59C3.10618 6.2921 3.23639 6.01251 3.42379 5.77248C3.61118 5.53246 3.85084 5.33832 4.12453 5.20483C4.39823 5.07133 4.69875 5.00199 5.00327 5.00208L17.8125 5.00156C18.163 4.39468 18.8171 4 19.5481 4H20.747C21.0071 4.00839 21.2536 4.11758 21.4346 4.3045C21.6156 4.49141 21.7168 4.74139 21.7168 5.00156C21.7168 5.26174 21.6156 5.51171 21.4346 5.69863Z" fill="#0047D6"/>
<path d="M21.4346 5.69863C21.2536 5.88554 21.0071 5.99474 20.747 6.00312H19.5481L18.2418 11.8802C18.0441 12.7702 17.5488 13.5661 16.8376 14.1366C16.1265 14.707 15.242 15.0178 14.3304 15.0177H6.50535C6.05849 15.0178 5.62444 14.8684 5.27224 14.5934C4.92003 14.3184 4.66989 13.9335 4.5616 13.5L3.05952 7.49167C2.98557 7.19627 2.97994 6.8879 3.04306 6.59C3.10618 6.2921 3.23639 6.01251 3.42379 5.77248C3.61118 5.53246 3.85084 5.33832 4.12453 5.20483C4.39823 5.07133 4.69875 5.00199 5.00327 5.00208L17.8125 5.00156C18.163 4.39468 18.8171 4 19.5481 4H20.747C21.0071 4.00839 21.2536 4.11758 21.4346 4.3045C21.6156 4.49141 21.7168 4.74139 21.7168 5.00156C21.7168 5.26174 21.6156 5.51171 21.4346 5.69863Z" fill="#0047D6"/>
</svg>
