<svg width="14" height="13" viewBox="0 0 14 13" fill="none" xmlns="http://www.w3.org/2000/svg">
<path d="M7.06724 0.173835C7.1044 0.10127 7.2081 0.10127 7.24526 0.173834L9.08547 3.76772C9.1 3.79609 9.12717 3.81583 9.15864 3.82088L13.1453 4.46045C13.2258 4.47337 13.2578 4.572 13.2003 4.62976L10.351 7.49048C10.3285 7.51306 10.3181 7.54501 10.323 7.57649L10.9467 11.5657C10.9593 11.6462 10.8754 11.7072 10.8027 11.6703L7.20147 9.84443C7.17305 9.83002 7.13945 9.83002 7.11103 9.84443L3.50983 11.6703C3.43712 11.7072 3.35322 11.6462 3.36581 11.5657L3.98948 7.57649C3.99441 7.54501 3.98403 7.51306 3.96154 7.49048L1.1122 4.62976C1.05467 4.572 1.08672 4.47337 1.16721 4.46045L5.15386 3.82088C5.18533 3.81583 5.2125 3.79609 5.22703 3.76772L7.06724 0.173835Z" fill="#E9A426"/>
</svg>
