<svg width="34" height="35" viewBox="0 0 34 35" fill="none" xmlns="http://www.w3.org/2000/svg">
<circle cx="17" cy="17.208" r="16" stroke="white" stroke-width="2"/>
<path d="M17 10.5415C17.8841 10.5415 18.7319 10.8927 19.357 11.5178C19.9822 12.1429 20.3333 12.9908 20.3333 13.8748C20.3333 14.7589 19.9822 15.6067 19.357 16.2319C18.7319 16.857 17.8841 17.2082 17 17.2082C16.116 17.2082 15.2681 16.857 14.643 16.2319C14.0179 15.6067 13.6667 14.7589 13.6667 13.8748C13.6667 12.9908 14.0179 12.1429 14.643 11.5178C15.2681 10.8927 16.116 10.5415 17 10.5415ZM17 18.8748C20.6833 18.8748 23.6667 20.3665 23.6667 22.2082V23.8748H10.3333V22.2082C10.3333 20.3665 13.3167 18.8748 17 18.8748Z" fill="white"/>
</svg>
